<svg width="45" height="45" viewBox="0 0 45 45" fill="none" xmlns="http://www.w3.org/2000/svg">
<path d="M22.4547 11.0527C19.8893 11.0527 17.9879 11.8374 16.7807 13.0447C15.5734 14.2519 15.1509 15.761 15 16.9079L18.0181 17.3002C18.1388 16.5457 18.3803 15.7912 18.9537 15.2177C19.5272 14.6443 20.4326 14.0708 22.4547 14.0708C24.4467 14.0708 25.5332 14.5537 26.1368 15.097C26.7404 15.6403 26.9819 16.3042 26.9819 17.089C26.9819 19.594 25.9557 20.2881 24.4467 21.6161C22.9376 22.9441 20.9457 24.8757 20.9457 28.4069V29.1614H23.9638V28.4069C23.9638 25.9018 24.8994 25.2077 26.4085 23.8797C27.9175 22.5517 30 20.6201 30 17.089C30 15.6403 29.4869 14.0105 28.2193 12.8334C26.9215 11.6564 24.9899 11.0527 22.4547 11.0527V11.0527ZM20.9457 32.1795V35.1976H23.9638V32.1795H20.9457Z" fill="black"/>
<circle cx="22.5" cy="22.5" r="21" stroke="black" stroke-width="3"/>
</svg>
